<?xml version="1.0" encoding="UTF-8"?>
<svg xmlns="http://www.w3.org/2000/svg" xmlns:xlink="http://www.w3.org/1999/xlink" width="225" height="145" viewBox="0 0 225 145">
<path fill-rule="evenodd" fill="rgb(100%, 100%, 100%)" fill-opacity="1" d="M 1 1 L 1 145 L 225 145 L 225 1 Z M 1 1 "/>
<path fill-rule="evenodd" fill="rgb(62.9%, 78.5%, 95.3%)" fill-opacity="1" d="M 97 9 L 97 137 L 209 137 L 209 9 Z M 97 9 "/>
<path fill-rule="evenodd" fill="rgb(55.1%, 89.5%, 62.9%)" fill-opacity="1" d="M 41 73 L 41 137 L 89 137 L 89 73 Z M 41 73 "/>
<path fill-rule="evenodd" fill="rgb(62.9%, 78.5%, 95.3%)" fill-opacity="1" d="M 41 9 L 41 73 L 89 73 L 89 9 Z M 41 9 "/>
<path fill-rule="evenodd" fill="rgb(55.1%, 89.5%, 62.9%)" fill-opacity="1" d="M 17 105 L 17 137 L 33 137 L 33 105 Z M 17 105 "/>
<path fill-rule="evenodd" fill="rgb(62.9%, 78.5%, 95.3%)" fill-opacity="1" d="M 17 73 L 17 105 L 33 105 L 33 73 Z M 17 73 "/>
<path fill-rule="evenodd" fill="rgb(55.1%, 89.5%, 62.9%)" fill-opacity="1" d="M 17 41 L 17 73 L 33 73 L 33 41 Z M 17 41 "/>
<path fill-rule="evenodd" fill="rgb(62.9%, 78.5%, 95.3%)" fill-opacity="1" d="M 17 9 L 17 41 L 33 41 L 33 9 Z M 17 9 "/>
<path fill-rule="evenodd" fill="rgb(83.6%, 37.1%, 37.1%)" fill-opacity="1" d="M 197 109 L 197 133 L 205 133 L 205 109 Z M 197 109 "/>
<path fill-rule="evenodd" fill="rgb(83.6%, 37.1%, 37.1%)" fill-opacity="1" d="M 197 77 L 197 101 L 205 101 L 205 77 Z M 197 77 "/>
<path fill-rule="evenodd" fill="rgb(83.6%, 37.1%, 37.1%)" fill-opacity="1" d="M 197 45 L 197 69 L 205 69 L 205 45 Z M 197 45 "/>
<path fill-rule="evenodd" fill="rgb(83.6%, 37.1%, 37.1%)" fill-opacity="1" d="M 197 13 L 197 37 L 205 37 L 205 13 Z M 197 13 "/>
<path fill-rule="evenodd" fill="rgb(83.6%, 37.1%, 37.1%)" fill-opacity="1" d="M 165 77 L 165 133 L 189 133 L 189 77 Z M 165 77 "/>
<path fill-rule="evenodd" fill="rgb(83.6%, 37.1%, 37.1%)" fill-opacity="1" d="M 165 13 L 165 69 L 189 69 L 189 13 Z M 165 13 "/>
<path fill-rule="evenodd" fill="rgb(83.6%, 37.1%, 37.1%)" fill-opacity="1" d="M 101 13 L 101 133 L 157 133 L 157 13 Z M 101 13 "/>
<path fill-rule="evenodd" fill="rgb(83.6%, 37.1%, 37.1%)" fill-opacity="1" d="M 77 109 L 77 133 L 85 133 L 85 109 Z M 77 109 "/>
<path fill-rule="evenodd" fill="rgb(83.6%, 37.1%, 37.1%)" fill-opacity="1" d="M 77 77 L 77 101 L 85 101 L 85 77 Z M 77 77 "/>
<path fill-rule="evenodd" fill="rgb(83.6%, 37.1%, 37.1%)" fill-opacity="1" d="M 77 45 L 77 69 L 85 69 L 85 45 Z M 77 45 "/>
<path fill-rule="evenodd" fill="rgb(83.6%, 37.1%, 37.1%)" fill-opacity="1" d="M 77 13 L 77 37 L 85 37 L 85 13 Z M 77 13 "/>
<path fill-rule="evenodd" fill="rgb(83.6%, 37.1%, 37.1%)" fill-opacity="1" d="M 45 77 L 45 133 L 69 133 L 69 77 Z M 45 77 "/>
<path fill-rule="evenodd" fill="rgb(83.6%, 37.1%, 37.1%)" fill-opacity="1" d="M 45 13 L 45 69 L 69 69 L 69 13 Z M 45 13 "/>
<path fill-rule="evenodd" fill="rgb(83.6%, 37.1%, 37.1%)" fill-opacity="1" d="M 21 109 L 21 133 L 29 133 L 29 109 Z M 21 109 "/>
<path fill-rule="evenodd" fill="rgb(83.6%, 37.1%, 37.1%)" fill-opacity="1" d="M 21 77 L 21 101 L 29 101 L 29 77 Z M 21 77 "/>
<path fill-rule="evenodd" fill="rgb(83.6%, 37.1%, 37.1%)" fill-opacity="1" d="M 21 45 L 21 69 L 29 69 L 29 45 Z M 21 45 "/>
<path fill-rule="evenodd" fill="rgb(83.6%, 37.1%, 37.1%)" fill-opacity="1" d="M 21 13 L 21 37 L 29 37 L 29 13 Z M 21 13 "/>
<path fill="none" stroke-width="0.8" stroke-linecap="butt" stroke-linejoin="round" stroke="rgb(0%, 0%, 0%)" stroke-opacity="1" stroke-miterlimit="10" d="M 64 784 L 272 784 " transform="matrix(1, 0, 0, -1, -55, 801)"/>
<path fill="none" stroke-width="0.8" stroke-linecap="butt" stroke-linejoin="round" stroke="rgb(0%, 0%, 0%)" stroke-opacity="1" stroke-miterlimit="10" d="M 64 768 L 272 768 " transform="matrix(1, 0, 0, -1, -55, 801)"/>
<path fill="none" stroke-width="0.8" stroke-linecap="butt" stroke-linejoin="round" stroke="rgb(0%, 0%, 0%)" stroke-opacity="1" stroke-miterlimit="10" d="M 80 784 L 80 768 " transform="matrix(1, 0, 0, -1, -55, 801)"/>
<path fill-rule="evenodd" fill="rgb(0%, 0%, 0%)" fill-opacity="1" stroke-width="0.8" stroke-linecap="butt" stroke-linejoin="round" stroke="rgb(0%, 0%, 0%)" stroke-opacity="1" stroke-miterlimit="10" d="M 80 768 L 82.332031 775 L 77.667969 775 Z M 80 768 " transform="matrix(1, 0, 0, -1, -55, 801)"/>
<path fill="none" stroke-width="0.8" stroke-linecap="butt" stroke-linejoin="round" stroke="rgb(0%, 0%, 0%)" stroke-opacity="1" stroke-miterlimit="10" d="M 80 736 L 80 752 " transform="matrix(1, 0, 0, -1, -55, 801)"/>
<path fill-rule="evenodd" fill="rgb(0%, 0%, 0%)" fill-opacity="1" stroke-width="0.8" stroke-linecap="butt" stroke-linejoin="round" stroke="rgb(0%, 0%, 0%)" stroke-opacity="1" stroke-miterlimit="10" d="M 80 752 L 77.667969 745 L 82.332031 745 Z M 80 752 " transform="matrix(1, 0, 0, -1, -55, 801)"/>
<path fill="none" stroke-width="0.8" stroke-linecap="butt" stroke-linejoin="round" stroke="rgb(0%, 0%, 0%)" stroke-opacity="1" stroke-miterlimit="10" d="M 80 720 L 80 704 " transform="matrix(1, 0, 0, -1, -55, 801)"/>
<path fill-rule="evenodd" fill="rgb(0%, 0%, 0%)" fill-opacity="1" stroke-width="0.8" stroke-linecap="butt" stroke-linejoin="round" stroke="rgb(0%, 0%, 0%)" stroke-opacity="1" stroke-miterlimit="10" d="M 80 704 L 82.332031 711 L 77.667969 711 Z M 80 704 " transform="matrix(1, 0, 0, -1, -55, 801)"/>
<path fill="none" stroke-width="0.8" stroke-linecap="butt" stroke-linejoin="round" stroke="rgb(0%, 0%, 0%)" stroke-opacity="1" stroke-miterlimit="10" d="M 80 672 L 80 688 " transform="matrix(1, 0, 0, -1, -55, 801)"/>
<path fill-rule="evenodd" fill="rgb(0%, 0%, 0%)" fill-opacity="1" stroke-width="0.8" stroke-linecap="butt" stroke-linejoin="round" stroke="rgb(0%, 0%, 0%)" stroke-opacity="1" stroke-miterlimit="10" d="M 80 688 L 77.667969 681 L 82.332031 681 Z M 80 688 " transform="matrix(1, 0, 0, -1, -55, 801)"/>
<path fill="none" stroke-width="0.8" stroke-linecap="butt" stroke-linejoin="round" stroke="rgb(0%, 0%, 0%)" stroke-opacity="1" stroke-miterlimit="10" d="M 104 784 L 104 752 " transform="matrix(1, 0, 0, -1, -55, 801)"/>
<path fill-rule="evenodd" fill="rgb(0%, 0%, 0%)" fill-opacity="1" stroke-width="0.8" stroke-linecap="butt" stroke-linejoin="round" stroke="rgb(0%, 0%, 0%)" stroke-opacity="1" stroke-miterlimit="10" d="M 104 752 L 106.332031 759 L 101.667969 759 Z M 104 752 " transform="matrix(1, 0, 0, -1, -55, 801)"/>
<path fill="none" stroke-width="0.8" stroke-linecap="butt" stroke-linejoin="round" stroke="rgb(0%, 0%, 0%)" stroke-opacity="1" stroke-miterlimit="10" d="M 120 768 L 120 736 " transform="matrix(1, 0, 0, -1, -55, 801)"/>
<path fill-rule="evenodd" fill="rgb(0%, 0%, 0%)" fill-opacity="1" stroke-width="0.8" stroke-linecap="butt" stroke-linejoin="round" stroke="rgb(0%, 0%, 0%)" stroke-opacity="1" stroke-miterlimit="10" d="M 120 736 L 122.332031 743 L 117.667969 743 Z M 120 736 " transform="matrix(1, 0, 0, -1, -55, 801)"/>
<path fill="none" stroke-width="0.8" stroke-linecap="butt" stroke-linejoin="round" stroke="rgb(0%, 0%, 0%)" stroke-opacity="1" stroke-miterlimit="10" d="M 136 784 L 136 768 " transform="matrix(1, 0, 0, -1, -55, 801)"/>
<path fill-rule="evenodd" fill="rgb(0%, 0%, 0%)" fill-opacity="1" stroke-width="0.8" stroke-linecap="butt" stroke-linejoin="round" stroke="rgb(0%, 0%, 0%)" stroke-opacity="1" stroke-miterlimit="10" d="M 136 768 L 138.332031 775 L 133.667969 775 Z M 136 768 " transform="matrix(1, 0, 0, -1, -55, 801)"/>
<path fill="none" stroke-width="0.8" stroke-linecap="butt" stroke-linejoin="round" stroke="rgb(0%, 0%, 0%)" stroke-opacity="1" stroke-miterlimit="10" d="M 136 752 L 136 736 " transform="matrix(1, 0, 0, -1, -55, 801)"/>
<path fill-rule="evenodd" fill="rgb(0%, 0%, 0%)" fill-opacity="1" stroke-width="0.8" stroke-linecap="butt" stroke-linejoin="round" stroke="rgb(0%, 0%, 0%)" stroke-opacity="1" stroke-miterlimit="10" d="M 136 736 L 138.332031 743 L 133.667969 743 Z M 136 736 " transform="matrix(1, 0, 0, -1, -55, 801)"/>
<path fill="none" stroke-width="0.8" stroke-linecap="butt" stroke-linejoin="round" stroke="rgb(0%, 0%, 0%)" stroke-opacity="1" stroke-miterlimit="10" d="M 136 704 L 136 720 " transform="matrix(1, 0, 0, -1, -55, 801)"/>
<path fill-rule="evenodd" fill="rgb(0%, 0%, 0%)" fill-opacity="1" stroke-width="0.8" stroke-linecap="butt" stroke-linejoin="round" stroke="rgb(0%, 0%, 0%)" stroke-opacity="1" stroke-miterlimit="10" d="M 136 720 L 133.667969 713 L 138.332031 713 Z M 136 720 " transform="matrix(1, 0, 0, -1, -55, 801)"/>
<path fill="none" stroke-width="0.8" stroke-linecap="butt" stroke-linejoin="round" stroke="rgb(0%, 0%, 0%)" stroke-opacity="1" stroke-miterlimit="10" d="M 136 672 L 136 688 " transform="matrix(1, 0, 0, -1, -55, 801)"/>
<path fill-rule="evenodd" fill="rgb(0%, 0%, 0%)" fill-opacity="1" stroke-width="0.8" stroke-linecap="butt" stroke-linejoin="round" stroke="rgb(0%, 0%, 0%)" stroke-opacity="1" stroke-miterlimit="10" d="M 136 688 L 133.667969 681 L 138.332031 681 Z M 136 688 " transform="matrix(1, 0, 0, -1, -55, 801)"/>
<path fill="none" stroke-width="0.8" stroke-linecap="butt" stroke-linejoin="round" stroke="rgb(0%, 0%, 0%)" stroke-opacity="1" stroke-miterlimit="10" d="M 160 784 L 160 720 " transform="matrix(1, 0, 0, -1, -55, 801)"/>
<path fill-rule="evenodd" fill="rgb(0%, 0%, 0%)" fill-opacity="1" stroke-width="0.8" stroke-linecap="butt" stroke-linejoin="round" stroke="rgb(0%, 0%, 0%)" stroke-opacity="1" stroke-miterlimit="10" d="M 160 720 L 162.332031 727 L 157.667969 727 Z M 160 720 " transform="matrix(1, 0, 0, -1, -55, 801)"/>
<path fill="none" stroke-width="0.8" stroke-linecap="butt" stroke-linejoin="round" stroke="rgb(0%, 0%, 0%)" stroke-opacity="1" stroke-miterlimit="10" d="M 176 768 L 176 704 " transform="matrix(1, 0, 0, -1, -55, 801)"/>
<path fill-rule="evenodd" fill="rgb(0%, 0%, 0%)" fill-opacity="1" stroke-width="0.8" stroke-linecap="butt" stroke-linejoin="round" stroke="rgb(0%, 0%, 0%)" stroke-opacity="1" stroke-miterlimit="10" d="M 176 704 L 178.332031 711 L 173.667969 711 Z M 176 704 " transform="matrix(1, 0, 0, -1, -55, 801)"/>
<path fill="none" stroke-width="0.8" stroke-linecap="butt" stroke-linejoin="round" stroke="rgb(0%, 0%, 0%)" stroke-opacity="1" stroke-miterlimit="10" d="M 192 752 L 192 688 " transform="matrix(1, 0, 0, -1, -55, 801)"/>
<path fill-rule="evenodd" fill="rgb(0%, 0%, 0%)" fill-opacity="1" stroke-width="0.8" stroke-linecap="butt" stroke-linejoin="round" stroke="rgb(0%, 0%, 0%)" stroke-opacity="1" stroke-miterlimit="10" d="M 192 688 L 194.332031 695 L 189.667969 695 Z M 192 688 " transform="matrix(1, 0, 0, -1, -55, 801)"/>
<path fill="none" stroke-width="0.8" stroke-linecap="butt" stroke-linejoin="round" stroke="rgb(0%, 0%, 0%)" stroke-opacity="1" stroke-miterlimit="10" d="M 208 736 L 208 672 " transform="matrix(1, 0, 0, -1, -55, 801)"/>
<path fill-rule="evenodd" fill="rgb(0%, 0%, 0%)" fill-opacity="1" stroke-width="0.8" stroke-linecap="butt" stroke-linejoin="round" stroke="rgb(0%, 0%, 0%)" stroke-opacity="1" stroke-miterlimit="10" d="M 208 672 L 210.332031 679 L 205.667969 679 Z M 208 672 " transform="matrix(1, 0, 0, -1, -55, 801)"/>
<path fill="none" stroke-width="0.8" stroke-linecap="butt" stroke-linejoin="round" stroke="rgb(0%, 0%, 0%)" stroke-opacity="1" stroke-miterlimit="10" d="M 224 784 L 224 752 " transform="matrix(1, 0, 0, -1, -55, 801)"/>
<path fill-rule="evenodd" fill="rgb(0%, 0%, 0%)" fill-opacity="1" stroke-width="0.8" stroke-linecap="butt" stroke-linejoin="round" stroke="rgb(0%, 0%, 0%)" stroke-opacity="1" stroke-miterlimit="10" d="M 224 752 L 226.332031 759 L 221.667969 759 Z M 224 752 " transform="matrix(1, 0, 0, -1, -55, 801)"/>
<path fill="none" stroke-width="0.8" stroke-linecap="butt" stroke-linejoin="round" stroke="rgb(0%, 0%, 0%)" stroke-opacity="1" stroke-miterlimit="10" d="M 240 768 L 240 736 " transform="matrix(1, 0, 0, -1, -55, 801)"/>
<path fill-rule="evenodd" fill="rgb(0%, 0%, 0%)" fill-opacity="1" stroke-width="0.8" stroke-linecap="butt" stroke-linejoin="round" stroke="rgb(0%, 0%, 0%)" stroke-opacity="1" stroke-miterlimit="10" d="M 240 736 L 242.332031 743 L 237.667969 743 Z M 240 736 " transform="matrix(1, 0, 0, -1, -55, 801)"/>
<path fill="none" stroke-width="0.8" stroke-linecap="butt" stroke-linejoin="round" stroke="rgb(0%, 0%, 0%)" stroke-opacity="1" stroke-miterlimit="10" d="M 224 720 L 224 688 " transform="matrix(1, 0, 0, -1, -55, 801)"/>
<path fill-rule="evenodd" fill="rgb(0%, 0%, 0%)" fill-opacity="1" stroke-width="0.8" stroke-linecap="butt" stroke-linejoin="round" stroke="rgb(0%, 0%, 0%)" stroke-opacity="1" stroke-miterlimit="10" d="M 224 688 L 226.332031 695 L 221.667969 695 Z M 224 688 " transform="matrix(1, 0, 0, -1, -55, 801)"/>
<path fill="none" stroke-width="0.8" stroke-linecap="butt" stroke-linejoin="round" stroke="rgb(0%, 0%, 0%)" stroke-opacity="1" stroke-miterlimit="10" d="M 240 704 L 240 672 " transform="matrix(1, 0, 0, -1, -55, 801)"/>
<path fill-rule="evenodd" fill="rgb(0%, 0%, 0%)" fill-opacity="1" stroke-width="0.8" stroke-linecap="butt" stroke-linejoin="round" stroke="rgb(0%, 0%, 0%)" stroke-opacity="1" stroke-miterlimit="10" d="M 240 672 L 242.332031 679 L 237.667969 679 Z M 240 672 " transform="matrix(1, 0, 0, -1, -55, 801)"/>
<path fill="none" stroke-width="0.8" stroke-linecap="butt" stroke-linejoin="round" stroke="rgb(0%, 0%, 0%)" stroke-opacity="1" stroke-miterlimit="10" d="M 256 784 L 256 768 " transform="matrix(1, 0, 0, -1, -55, 801)"/>
<path fill-rule="evenodd" fill="rgb(0%, 0%, 0%)" fill-opacity="1" stroke-width="0.8" stroke-linecap="butt" stroke-linejoin="round" stroke="rgb(0%, 0%, 0%)" stroke-opacity="1" stroke-miterlimit="10" d="M 256 768 L 258.332031 775 L 253.667969 775 Z M 256 768 " transform="matrix(1, 0, 0, -1, -55, 801)"/>
<path fill="none" stroke-width="0.8" stroke-linecap="butt" stroke-linejoin="round" stroke="rgb(0%, 0%, 0%)" stroke-opacity="1" stroke-miterlimit="10" d="M 256 752 L 256 736 " transform="matrix(1, 0, 0, -1, -55, 801)"/>
<path fill-rule="evenodd" fill="rgb(0%, 0%, 0%)" fill-opacity="1" stroke-width="0.8" stroke-linecap="butt" stroke-linejoin="round" stroke="rgb(0%, 0%, 0%)" stroke-opacity="1" stroke-miterlimit="10" d="M 256 736 L 258.332031 743 L 253.667969 743 Z M 256 736 " transform="matrix(1, 0, 0, -1, -55, 801)"/>
<path fill="none" stroke-width="0.8" stroke-linecap="butt" stroke-linejoin="round" stroke="rgb(0%, 0%, 0%)" stroke-opacity="1" stroke-miterlimit="10" d="M 256 720 L 256 704 " transform="matrix(1, 0, 0, -1, -55, 801)"/>
<path fill-rule="evenodd" fill="rgb(0%, 0%, 0%)" fill-opacity="1" stroke-width="0.8" stroke-linecap="butt" stroke-linejoin="round" stroke="rgb(0%, 0%, 0%)" stroke-opacity="1" stroke-miterlimit="10" d="M 256 704 L 258.332031 711 L 253.667969 711 Z M 256 704 " transform="matrix(1, 0, 0, -1, -55, 801)"/>
<path fill="none" stroke-width="0.8" stroke-linecap="butt" stroke-linejoin="round" stroke="rgb(0%, 0%, 0%)" stroke-opacity="1" stroke-miterlimit="10" d="M 256 688 L 256 672 " transform="matrix(1, 0, 0, -1, -55, 801)"/>
<path fill-rule="evenodd" fill="rgb(0%, 0%, 0%)" fill-opacity="1" stroke-width="0.8" stroke-linecap="butt" stroke-linejoin="round" stroke="rgb(0%, 0%, 0%)" stroke-opacity="1" stroke-miterlimit="10" d="M 256 672 L 258.332031 679 L 253.667969 679 Z M 256 672 " transform="matrix(1, 0, 0, -1, -55, 801)"/>
<path fill="none" stroke-width="0.8" stroke-linecap="butt" stroke-linejoin="round" stroke="rgb(0%, 0%, 0%)" stroke-opacity="1" stroke-miterlimit="10" d="M 104 672 L 104 704 " transform="matrix(1, 0, 0, -1, -55, 801)"/>
<path fill-rule="evenodd" fill="rgb(0%, 0%, 0%)" fill-opacity="1" stroke-width="0.8" stroke-linecap="butt" stroke-linejoin="round" stroke="rgb(0%, 0%, 0%)" stroke-opacity="1" stroke-miterlimit="10" d="M 104 704 L 101.667969 697 L 106.332031 697 Z M 104 704 " transform="matrix(1, 0, 0, -1, -55, 801)"/>
<path fill="none" stroke-width="0.8" stroke-linecap="butt" stroke-linejoin="round" stroke="rgb(0%, 0%, 0%)" stroke-opacity="1" stroke-miterlimit="10" d="M 120 688 L 120 720 " transform="matrix(1, 0, 0, -1, -55, 801)"/>
<path fill-rule="evenodd" fill="rgb(0%, 0%, 0%)" fill-opacity="1" stroke-width="0.8" stroke-linecap="butt" stroke-linejoin="round" stroke="rgb(0%, 0%, 0%)" stroke-opacity="1" stroke-miterlimit="10" d="M 120 720 L 117.667969 713 L 122.332031 713 Z M 120 720 " transform="matrix(1, 0, 0, -1, -55, 801)"/>
<path fill="none" stroke-width="0.8" stroke-linecap="butt" stroke-linejoin="round" stroke="rgb(0%, 0%, 0%)" stroke-opacity="1" stroke-miterlimit="10" d="M 64 752 L 272 752 " transform="matrix(1, 0, 0, -1, -55, 801)"/>
<path fill="none" stroke-width="0.8" stroke-linecap="butt" stroke-linejoin="round" stroke="rgb(0%, 0%, 0%)" stroke-opacity="1" stroke-miterlimit="10" d="M 64 736 L 272 736 " transform="matrix(1, 0, 0, -1, -55, 801)"/>
<path fill="none" stroke-width="0.8" stroke-linecap="butt" stroke-linejoin="round" stroke="rgb(0%, 0%, 0%)" stroke-opacity="1" stroke-miterlimit="10" d="M 64 720 L 272 720 " transform="matrix(1, 0, 0, -1, -55, 801)"/>
<path fill="none" stroke-width="0.8" stroke-linecap="butt" stroke-linejoin="round" stroke="rgb(0%, 0%, 0%)" stroke-opacity="1" stroke-miterlimit="10" d="M 64 704 L 272 704 " transform="matrix(1, 0, 0, -1, -55, 801)"/>
<path fill="none" stroke-width="0.8" stroke-linecap="butt" stroke-linejoin="round" stroke="rgb(0%, 0%, 0%)" stroke-opacity="1" stroke-miterlimit="10" d="M 64 688 L 272 688 " transform="matrix(1, 0, 0, -1, -55, 801)"/>
<path fill="none" stroke-width="0.8" stroke-linecap="butt" stroke-linejoin="round" stroke="rgb(0%, 0%, 0%)" stroke-opacity="1" stroke-miterlimit="10" d="M 64 672 L 272 672 " transform="matrix(1, 0, 0, -1, -55, 801)"/>
</svg>
